<?xml version="1.0" encoding="UTF-8"?>
<svg id="_图层_2" data-name="图层 2" xmlns="http://www.w3.org/2000/svg" viewBox="0 0 666.48 142.09">
  <defs>
    <style>
      .cls-1 {
        fill: #fff;
      }

      .cls-1, .cls-2, .cls-3 {
        stroke-width: 0px;
      }

      .cls-2 {
        fill: #336;
      }

      .cls-3 {
        fill: #ef9a12;
      }
    </style>
  </defs>
  <g id="_图层_4" data-name="图层 4">
    <g>
      <path class="cls-1" d="M272.95,117.64V29.35h52.97v20.51h-30.25v15.45h27.66v19.61h-27.66v32.72h-22.72Z"/>
      <path class="cls-1" d="M343.62,117.85V49.89h22.83v67.96h-22.83Z"/>
      <path class="cls-1" d="M382.75,117.85V50.41h21.52v3.39c2.35-1.65,4.98-2.94,7.89-3.85,2.91-.91,6.07-1.37,9.46-1.37,4.96,0,9.33,1.13,13.11,3.39,3.78,2.26,6.74,5.5,8.87,9.72,2.13,4.22,3.2,9.28,3.2,15.2v40.96h-21.52v-38.09c0-3.48-.81-6.28-2.41-8.41-1.61-2.13-4.15-3.2-7.63-3.2s-6.18,1-8.09,3c-1.91,2-2.87,4.87-2.87,8.61v38.09h-21.52Z"/>
      <path class="cls-1" d="M476.94,117.85V49.89h-20.09v-20.74h62.88v20.74h-19.96v67.96h-22.83Z"/>
      <path class="cls-1" d="M567.99,117.85v-3.91c-2.17,1.83-4.63,3.24-7.37,4.24s-5.67,1.5-8.81,1.5c-4.44,0-8.61-.85-12.52-2.54-3.91-1.7-7.37-4.13-10.37-7.31-3-3.17-5.35-6.93-7.04-11.28-1.7-4.35-2.54-9.17-2.54-14.48s.85-10.26,2.54-14.61c1.7-4.35,4.04-8.07,7.04-11.15,3-3.09,6.46-5.48,10.37-7.17s8.04-2.54,12.39-2.54c3.13,0,6.09.5,8.87,1.5,2.78,1,5.26,2.37,7.44,4.11v-3.78h21.52v67.44h-21.52ZM554.69,100.63c4.17,0,7.52-1.52,10.04-4.57,2.52-3.04,3.78-7.04,3.78-12s-1.26-8.94-3.78-11.94c-2.52-3-5.87-4.5-10.04-4.5s-7.63,1.48-10.11,4.44c-2.48,2.96-3.72,6.96-3.72,12s1.24,9.07,3.72,12.07c2.48,3,5.85,4.5,10.11,4.5Z"/>
      <g>
        <polygon class="cls-1" points="598.39 50.41 622.39 50.41 666.48 117.85 642.48 117.85 598.39 50.41"/>
        <polygon class="cls-3" points="641.96 50.41 665.7 50.41 646.06 81.04 633.98 63.19 641.96 50.41"/>
        <polygon class="cls-1" points="597.34 117.85 621.09 117.85 629.78 103.61 617.71 85.24 597.34 117.85"/>
      </g>
      <circle class="cls-1" cx="355.04" cy="33.83" r="11.41"/>
    </g>
    <g>
      <path class="cls-3" d="M231.02,63.08H63.08C28.24,63.08,0,34.84,0,0h0S167.94,0,167.94,0c34.84,0,63.08,28.24,63.08,63.08h0Z"/>
      <path class="cls-2" d="M186.34,142.09H63.08C28.24,142.09,0,113.85,0,79.01h0s123.26,0,123.26,0c34.84,0,63.08,28.24,63.08,63.08h0Z"/>
    </g>
  </g>
</svg>